# xmcd
#
# Track frame offsets:
#	150
#	15071
#	31083
#	44902
#	58784
#	74112
#	89538
#	102119
#	113052
#	129155
#	143071
#	157724
#	173429
#	187503
#	202361
#	218449
#
# Disc length: 3107 seconds
#
# Revision: 1
# Processed by: cddbd v1.5.1PL2 Copyright (c) Steve Scherf et al.
# Submitted via: audiograbber 1.83.01
#
DISCID=cc0c2110
DTITLE=The Drifters - The Only Drifters Album You'll Ever Need
DYEAR=2004
DGENRE=Oldies
TTITLE0=You're More Than A Number In My Little Red Book
TTITLE1=Kissin' In The Back Row Of The Movies
TTITLE2=Save The Last Dance For Me
TTITLE3=There Goes My First Love
TTITLE4=Every Night's A Saturday Night With You
TTITLE5=Like Sister And Brother
TTITLE6=Hello Happiness
TTITLE7=(There's) Always Something There To Remind Me
TTITLE8=Summer In The City
TTITLE9=Down On The Beach Tonight
TTITLE10=Harlem Child
TTITLE11=Can I Take You Home Little Girl?
TTITLE12=The Songs We Used To Sing
TTITLE13=Like A Movie I've Seen Before
TTITLE14=Midnight Cowboy
TTITLE15=Sweet Caroline (Good Times Never Seemed So Good)
EXTD=
EXTT0=
EXTT1=
EXTT2=
EXTT3=
EXTT4=
EXTT5=
EXTT6=
EXTT7=
EXTT8=
EXTT9=
EXTT10=
EXTT11=
EXTT12=
EXTT13=
EXTT14=
EXTT15=
PLAYORDER=
